<?xml version="1.0" encoding="UTF-8"?>
<svg version="1.1" xmlns="http://www.w3.org/2000/svg" width="256" height="256">
<path d="M0 0 C2.96382946 1.63135151 5.83774171 3.29892061 8.6640625 5.16015625 C9.63085938 5.79179688 10.59765625 6.4234375 11.59375 7.07421875 C12.68042969 7.79738281 12.68042969 7.79738281 13.7890625 8.53515625 C13.05672277 10.18892343 12.30253536 11.83302929 11.5390625 13.47265625 C11.12140625 14.38917969 10.70375 15.30570313 10.2734375 16.25 C8.7890625 18.53515625 8.7890625 18.53515625 6.765625 19.4453125 C4.7890625 19.53515625 4.7890625 19.53515625 2.4140625 18.03515625 C-1.01706401 16.07451253 -2.42252592 16.61284662 -6.2109375 17.53515625 C-8.91859679 18.76189801 -8.91859679 18.76189801 -11.5703125 20.38671875 C-12.5910083 20.98347412 -13.6117041 21.58022949 -14.66333008 22.19506836 C-15.75154053 22.84354736 -16.83975098 23.49202637 -17.9609375 24.16015625 C-19.69701679 25.1792583 -21.43310547 26.19834477 -23.16975403 27.21647644 C-24.97523317 28.2763097 -26.77841531 29.33998069 -28.58154297 30.40380859 C-33.2565703 33.15619546 -37.96411917 35.85104354 -42.6706543 38.54907227 C-54.45598545 45.30644704 -54.45598545 45.30644704 -66.1484375 52.22265625 C-67.08558594 52.78339844 -68.02273437 53.34414062 -68.98828125 53.921875 C-71.95366277 56.0742521 -73.78418118 57.98531766 -74.76904297 61.56201172 C-75.39527377 65.77540329 -75.44770786 69.95625977 -75.52734375 74.2109375 C-75.54812485 75.13609665 -75.56890594 76.0612558 -75.59031677 77.01445007 C-75.6555031 79.95877932 -75.71455308 82.9031949 -75.7734375 85.84765625 C-75.81665214 87.84831608 -75.86026736 89.84896731 -75.90429688 91.84960938 C-76.0119037 96.74470461 -76.11120689 101.63986889 -76.2109375 106.53515625 C-84.1309375 106.53515625 -92.0509375 106.53515625 -100.2109375 106.53515625 C-100.13669968 112.22842909 -100.05365573 117.92019917 -99.94848633 123.61279297 C-99.91536713 125.54663127 -99.88729526 127.48056321 -99.86450195 129.41455078 C-99.83071565 132.20515604 -99.7783892 134.99491316 -99.72265625 137.78515625 C-99.71626633 138.64069092 -99.7098764 139.49622559 -99.70329285 140.37768555 C-99.55776 146.40839513 -98.8983265 152.46997683 -94.74984741 157.2016449 C-89.71704721 161.93611831 -83.37909277 165.11321841 -77.3984375 168.47265625 C-75.65506205 169.46493319 -73.91169308 170.45722177 -72.16873169 171.45022583 C-70.36945924 172.47412595 -68.56841005 173.49484426 -66.76708984 174.51513672 C-61.22947612 177.65563404 -55.72211643 180.84858587 -50.2109375 184.03515625 C-48.07168913 185.26835849 -45.93236576 186.50143064 -43.79296875 187.734375 C-39.7904357 190.04299504 -35.7917404 192.35800598 -31.7975769 194.68106079 C-29.40778082 196.07064255 -27.01656914 197.45777797 -24.62524414 198.84472656 C-22.93953161 199.82378878 -21.25587163 200.80638231 -19.57226562 201.7890625 C-18.54939453 202.38203125 -17.52652344 202.975 -16.47265625 203.5859375 C-15.57506592 204.10841064 -14.67747559 204.63088379 -13.75268555 205.16918945 C-8.55225124 207.96396708 -4.15873039 209.29147348 1.7890625 208.53515625 C4.33389145 207.6039802 6.43889778 206.68616593 8.7890625 205.41015625 C9.46146973 205.05961182 10.13387695 204.70906738 10.82666016 204.34790039 C20.23961042 199.3579659 29.3759756 193.85262562 38.54785156 188.43798828 C42.92607677 185.86764425 47.3272416 183.33817928 51.73022461 180.81054688 C56.05864937 178.32456899 60.37951256 175.82566361 64.69873047 173.32373047 C66.73000341 172.14810197 68.76283858 170.97516783 70.79736328 169.80517578 C73.57236654 168.20591848 76.33803674 166.59164486 79.1015625 164.97265625 C79.91334961 164.50843262 80.72513672 164.04420898 81.56152344 163.56591797 C88.45141773 159.49193204 92.61710168 155.49901257 94.7890625 147.53515625 C95.01133769 145.01252008 95.14236466 142.48089955 95.203125 139.94921875 C95.22249115 139.247435 95.2418573 138.54565125 95.2618103 137.82260132 C95.32113819 135.60190626 95.36780167 133.38115802 95.4140625 131.16015625 C95.45228552 129.64581191 95.49133972 128.13148831 95.53125 126.6171875 C95.62679984 122.92336794 95.71100187 119.22939155 95.7890625 115.53515625 C100.0790625 115.53515625 104.3690625 115.53515625 108.7890625 115.53515625 C108.88898987 120.31821811 108.96102204 125.10065382 109.00878906 129.88452148 C109.02873063 131.50702518 109.05589424 133.12945867 109.09082031 134.75170898 C109.33310337 146.30647294 109.28770975 157.44843286 101.1015625 166.59765625 C95.37865053 172.48671727 88.56078822 176.15274921 81.4296875 180.0703125 C77.4669698 182.26856566 73.55237564 184.54824014 69.63208008 186.82104492 C66.30640989 188.74882977 62.97610967 190.66838354 59.64453125 192.5859375 C55.06138185 195.22499837 50.4807119 197.86827812 45.90234375 200.515625 C40.48835639 203.64614602 35.07011555 206.7691768 29.64892578 209.88720703 C27.04502762 211.38766055 24.44596746 212.89615248 21.84765625 214.40625 C20.43257259 215.22054047 19.01723206 216.03438482 17.6015625 216.84765625 C16.69446533 217.38011963 16.69446533 217.38011963 15.76904297 217.92333984 C10.10724128 221.15103553 4.55593728 222.82014417 -1.9609375 222.91015625 C-2.88390625 222.93851563 -3.806875 222.966875 -4.7578125 222.99609375 C-14.55975381 221.68768982 -22.90815633 216.7057899 -31.2734375 211.72265625 C-32.98960374 210.7163901 -34.70577847 209.71013808 -36.42245483 208.70474243 C-38.18964908 207.66832369 -39.95458441 206.62813942 -41.71923828 205.58740234 C-46.12868955 202.99073738 -50.56251493 200.43674903 -54.99780273 197.88452148 C-57.14081264 196.65108178 -59.28225355 195.41491207 -61.42211914 194.17602539 C-66.43013243 191.27732742 -71.44525966 188.39444043 -76.49536133 185.56976318 C-78.26350137 184.57978199 -80.02862655 183.58462221 -81.79296875 182.58789062 C-83.99291872 181.34711884 -86.19827299 180.11585591 -88.41015625 178.89648438 C-99.58012124 172.56779102 -108.87727708 165.41648949 -112.7563324 152.75494385 C-113.31158095 150.04372515 -113.33048138 147.5253413 -113.32446289 144.75683594 C-113.32438736 143.59593445 -113.32431183 142.43503296 -113.32423401 141.23895264 C-113.31907272 139.99091858 -113.31391144 138.74288452 -113.30859375 137.45703125 C-113.3071788 136.17532043 -113.30576385 134.89360962 -113.30430603 133.57305908 C-113.30049651 130.17331985 -113.29067964 126.77362365 -113.27960205 123.37390137 C-113.26935424 119.90161725 -113.2648012 116.42932615 -113.25976562 112.95703125 C-113.24905591 106.14972017 -113.23147183 99.34244471 -113.2109375 92.53515625 C-105.2909375 92.53515625 -97.3709375 92.53515625 -89.2109375 92.53515625 C-89.24574219 90.41335937 -89.28054687 88.2915625 -89.31640625 86.10546875 C-89.33990044 84.01694072 -89.35806051 81.92842824 -89.37573242 79.83984375 C-89.39068336 78.40455375 -89.41105174 76.96930834 -89.43725586 75.53417969 C-89.65015548 63.56170708 -89.42426272 53.72904823 -80.68261719 44.66113281 C-76.02108853 40.65159196 -70.72442673 37.81467867 -65.3359375 34.91015625 C-64.09522755 34.22421793 -62.85558064 33.5363537 -61.61694336 32.84667969 C-59.07127423 31.43059632 -56.52169089 30.02197947 -53.96923828 28.61816406 C-48.18746143 25.42705263 -42.48523095 22.09950746 -36.7734375 18.78515625 C-34.6445813 17.56241285 -32.51567581 16.33975528 -30.38671875 15.1171875 C-26.27070766 12.7451283 -22.19044731 10.32345126 -18.12890625 7.859375 C-17.17105225 7.28735352 -16.21319824 6.71533203 -15.22631836 6.12597656 C-13.43452462 5.05472846 -11.65202009 3.96772398 -9.88110352 2.86230469 C-4.05893383 -0.58760721 -4.05893383 -0.58760721 0 0 Z " fill="#00D2EF" transform="translate(130.2109375,28.46484375)"/>
<path d="M0 0 C1.04325439 0.61818604 2.08650879 1.23637207 3.16137695 1.87329102 C5.30828292 3.14638231 7.45387208 4.42169681 9.59814453 5.69921875 C12.58053536 7.46231765 15.58041879 9.18981272 18.58984375 10.90625 C20.37253662 11.9372566 22.15509578 12.96849445 23.9375 14 C24.75573242 14.45882568 25.57396484 14.91765137 26.41699219 15.39038086 C32.4752849 18.94058131 36.46293346 22.70130037 38.75 29.5625 C38.85846517 31.46747221 38.90885643 33.37596423 38.92700195 35.28393555 C38.94625481 37.04673103 38.94625481 37.04673103 38.96589661 38.84513855 C38.97328354 40.11698502 38.98067047 41.38883148 38.98828125 42.69921875 C38.996353 44.00776321 39.00442474 45.31630768 39.01274109 46.664505 C39.02775793 49.4377123 39.03759956 52.21089409 39.04516602 54.98413086 C39.05620169 58.52030636 39.09057184 62.0558476 39.13033772 65.59179974 C39.1629266 68.98174615 39.16729364 72.37162787 39.17578125 75.76171875 C39.19328934 77.02344406 39.21079742 78.28516937 39.22883606 79.58512878 C39.2120934 86.40083329 38.96491853 91.98339737 34.75 97.5625 C32.6640625 99.59155273 32.6640625 99.59155273 30.375 101.05859375 C29.49585938 101.62690918 28.61671875 102.19522461 27.7109375 102.78076172 C22.10572529 106.15368708 16.4543606 109.42389892 10.75 112.625 C8.33219757 113.98888029 5.91600852 115.35560137 3.5 116.72265625 C1.78079346 117.69428711 1.78079346 117.69428711 0.02685547 118.68554688 C-3.77048663 120.86063003 -7.51875259 123.10771246 -11.24951172 125.39477539 C-16.31554897 128.35192162 -21.4301954 129.42708742 -27.25 128.5625 C-34.30154072 126.0964063 -40.79554389 122.1376698 -47.25 118.4375 C-48.24950684 117.86781494 -49.24901367 117.29812988 -50.27880859 116.71118164 C-53.27270247 115.00096579 -56.26211091 113.28318149 -59.25 111.5625 C-60.12043945 111.06250488 -60.99087891 110.56250977 -61.88769531 110.04736328 C-64.22043586 108.70439632 -66.54884351 107.35433309 -68.875 106 C-69.55433594 105.60731934 -70.23367187 105.21463867 -70.93359375 104.81005859 C-77.66447342 100.85686628 -82.67640962 97.30542444 -85.25 89.5625 C-85.82348311 85.01728689 -85.81098955 80.5141354 -85.78125 75.9375 C-85.7850769 74.63603027 -85.78890381 73.33456055 -85.79284668 71.99365234 C-85.79871474 69.25013039 -85.79026737 66.50713247 -85.77148438 63.76367188 C-85.74869508 60.26673662 -85.76183291 56.77102971 -85.78577423 53.2741394 C-85.80379642 49.91183077 -85.7911368 46.5498434 -85.78125 43.1875 C-85.78934692 41.94145996 -85.79744385 40.69541992 -85.80578613 39.41162109 C-85.73337379 32.66454878 -85.43976326 27.07238417 -81.25 21.5625 C-78.07923656 18.53814384 -74.53867175 16.44309939 -70.7421875 14.27734375 C-69.6814502 13.66906738 -68.62071289 13.06079102 -67.52783203 12.43408203 C-66.40489746 11.79583496 -65.28196289 11.15758789 -64.125 10.5 C-62.37344071 9.49950422 -60.62255812 8.49783081 -58.87167358 7.49615479 C-57.69671155 6.82418401 -56.52143862 6.15275655 -55.34585571 5.48187256 C-51.70110506 3.40034348 -48.07160253 1.29480689 -44.453125 -0.83203125 C-43.15592529 -1.59277954 -43.15592529 -1.59277954 -41.83251953 -2.36889648 C-40.23242397 -3.30882943 -38.63433002 -4.25218089 -37.03857422 -5.19946289 C-36.32717285 -5.61574951 -35.61577148 -6.03203613 -34.8828125 -6.4609375 C-34.27324707 -6.82106934 -33.66368164 -7.18120117 -33.03564453 -7.55224609 C-21.20583299 -13.41701184 -10.01993436 -5.9754275 0 0 Z M-64.75 26.3125 C-65.40685791 26.71774902 -66.06371582 27.12299805 -66.74047852 27.54052734 C-70.04396023 29.51714928 -70.04396023 29.51714928 -72.25 32.5625 C-72.33991092 34.10477856 -72.36756961 35.65090895 -72.36352539 37.19580078 C-72.36344986 38.15664581 -72.36337433 39.11749084 -72.36329651 40.10745239 C-72.35813522 41.14707123 -72.35297394 42.18669006 -72.34765625 43.2578125 C-72.3462413 44.32039276 -72.34482635 45.38297302 -72.34336853 46.47775269 C-72.33775834 49.88103009 -72.32520409 53.28424238 -72.3125 56.6875 C-72.30748631 58.99088447 -72.30292318 61.29426997 -72.29882812 63.59765625 C-72.2877856 69.25262649 -72.27103752 74.90755859 -72.25 80.5625 C-68.09532252 79.25530433 -68.09532252 79.25530433 -64.1875 77.375 C-61.50719056 76.25099927 -59.96471887 76.63378039 -57.25 77.5625 C-54.95986347 80.9977048 -55.07157027 82.547831 -55.25 86.5625 C-58.22 88.2125 -61.19 89.8625 -64.25 91.5625 C-60.73524669 95.61513113 -56.5988644 97.76756727 -51.9375 100.25 C-45.19881029 103.89992375 -38.58610944 107.68181227 -32.11010742 111.78198242 C-28.86071779 113.7912735 -26.10875696 115.38479409 -22.25 115.5625 C-19.89466413 114.73820924 -19.89466413 114.73820924 -17.5625 113.25 C-16.61117187 112.69699219 -15.65984375 112.14398438 -14.6796875 111.57421875 C-13.54789063 110.91035156 -12.41609375 110.24648437 -11.25 109.5625 C-9.02256763 108.32061602 -6.7878986 107.09236491 -4.55297852 105.86401367 C2.63669981 101.9081694 9.76818517 97.87789309 16.75 93.5625 C14.76737729 91.46709336 13.13334802 90.18017577 10.625 88.625 C7.75 86.5625 7.75 86.5625 6.6875 84.625 C6.78309416 81.47039287 7.70413927 79.93833827 9.75 77.5625 C14.59017859 76.54943936 17.88984021 78.3847364 22.015625 80.6875 C23.72383814 81.71264268 23.72383814 81.71264268 25.75 81.5625 C25.876851 74.67590009 25.96437266 67.78960177 26.0246582 60.90209961 C26.04979125 58.55953716 26.08390308 56.21705305 26.12719727 53.87475586 C26.18789928 50.50615101 26.21622251 47.13858351 26.23828125 43.76953125 C26.26408768 42.72352249 26.2898941 41.67751373 26.31648254 40.59980774 C26.34356234 34.67557082 26.34356234 34.67557082 23.56982422 29.57080078 C20.8165235 27.60987856 18.11248982 25.8411114 15.14453125 24.22265625 C13.54448242 23.3399707 13.54448242 23.3399707 11.91210938 22.43945312 C10.80673828 21.84068359 9.70136719 21.24191406 8.5625 20.625 C6.38069918 19.42986519 4.19969945 18.2332667 2.01953125 17.03515625 C0.96717285 16.45910645 -0.08518555 15.88305664 -1.16943359 15.28955078 C-4.95020168 13.16994756 -8.64208745 10.92312394 -12.31762695 8.62670898 C-14.17430925 7.40169759 -14.17430925 7.40169759 -16.25 7.5625 C-16.34087891 8.95275391 -16.34087891 8.95275391 -16.43359375 10.37109375 C-16.51738281 11.56863281 -16.60117188 12.76617187 -16.6875 14 C-16.76871094 15.19496094 -16.84992188 16.38992187 -16.93359375 17.62109375 C-17.25 20.5625 -17.25 20.5625 -18.25 21.5625 C-21.58618231 21.70507189 -24.90975606 21.60478157 -28.25 21.5625 C-28.745 14.1375 -28.745 14.1375 -29.25 6.5625 C-39.22458501 6.5625 -56.13177371 20.9572291 -64.75 26.3125 Z " fill="#00D6EC" transform="translate(151.25,68.4375)"/>
<path d="M0 0 C3.48616154 0.67686029 6.17749011 2.06987575 9.26171875 3.80859375 C10.29063232 4.38601318 11.3195459 4.96343262 12.37963867 5.55834961 C13.47123291 6.17846924 14.56282715 6.79858887 15.6875 7.4375 C16.80423096 8.06986572 17.92096191 8.70223145 19.0715332 9.35375977 C21.32642632 10.633126 23.57994069 11.91492553 25.83203125 13.19921875 C28.61938549 14.78364576 31.41647188 16.34844815 34.21875 17.90625 C35.7088819 18.7490308 37.19850795 19.59270698 38.6875 20.4375 C39.35031982 20.80093506 40.01313965 21.16437012 40.69604492 21.53881836 C47.28776917 25.33722127 51.82681744 30.1955246 54.40815735 37.46385193 C55.69835131 42.99255606 55.35943636 48.69934175 55.29296875 54.34375 C55.28736365 55.72236669 55.28309788 57.10098942 55.28010559 58.47961426 C55.26872857 62.08330189 55.23932457 65.68661862 55.20599365 69.29016113 C55.17513727 72.97724391 55.16156722 76.66438744 55.14648438 80.3515625 C55.11444653 87.56789587 55.06173875 94.78384841 55 102 C47.08 102 39.16 102 31 102 C31.03480469 104.12179688 31.06960937 106.24359375 31.10546875 108.4296875 C31.12896294 110.51821553 31.14712301 112.60672801 31.16479492 114.6953125 C31.17974586 116.1306025 31.20011424 117.56584791 31.22631836 119.00097656 C31.41963012 129.87192027 31.49428002 140.65361268 23.48046875 148.96484375 C18.34354186 153.1795507 12.48269663 156.27047627 6.69482422 159.48974609 C2.63318643 161.76600007 -1.3895514 164.10843812 -5.41723633 166.4440918 C-8.75600262 168.37847775 -12.09989824 170.30370013 -15.4453125 172.2265625 C-19.65542503 174.64703638 -23.85836032 177.07914946 -28.0546875 179.5234375 C-29.91139906 180.59906066 -31.76816678 181.67458688 -33.625 182.75 C-34.45870117 183.23903809 -35.29240234 183.72807617 -36.15136719 184.23193359 C-44.26831838 188.91453468 -51.46871954 192.1182382 -61 191 C-69.25044698 188.55682759 -76.6196141 183.99598262 -84 179.6875 C-85.22216746 178.97998664 -86.44466716 178.27304693 -87.66748047 177.56665039 C-90.18860742 176.10929139 -92.70766439 174.64843594 -95.22558594 173.18554688 C-98.89243546 171.0581458 -102.57362859 168.95656807 -106.2578125 166.859375 C-107.42459393 166.19331624 -108.59126241 165.52705956 -109.7578125 164.8605957 C-111.93585131 163.61665634 -114.11543876 162.37542295 -116.296875 161.13745117 C-137.23327891 149.12234922 -137.23327891 149.12234922 -142 138 C-143.23783132 132.55521494 -143.11395542 127.17426938 -143.0625 121.625 C-143.05798828 120.69816406 -143.05347656 119.77132812 -143.04882812 118.81640625 C-143.03711594 116.54424272 -143.01918294 114.27211273 -143 112 C-138.38 112 -133.76 112 -129 112 C-128.96132812 114.27777344 -128.96132812 114.27777344 -128.921875 116.6015625 C-128.8655804 118.6094032 -128.80823337 120.61721459 -128.75 122.625 C-128.73582031 123.62402344 -128.72164062 124.62304688 -128.70703125 125.65234375 C-128.67480469 126.62558594 -128.64257812 127.59882813 -128.609375 128.6015625 C-128.58842773 129.49182129 -128.56748047 130.38208008 -128.54589844 131.29931641 C-127.58887372 136.0339351 -125.24963532 139.08525947 -121.38818359 141.91186523 C-119.90825928 142.72699585 -119.90825928 142.72699585 -118.3984375 143.55859375 C-116.72201172 144.49759521 -116.72201172 144.49759521 -115.01171875 145.45556641 C-113.79958154 146.11639876 -112.5873394 146.77703865 -111.375 147.4375 C-110.12285042 148.13307943 -108.87155947 148.83020657 -107.62109375 149.52880859 C-105.68845026 150.608005 -103.75517463 151.68589611 -101.81878662 152.75836182 C-97.44698588 155.18041171 -93.1075628 157.65219604 -88.7890625 160.16796875 C-88.21328461 160.50305954 -87.63750671 160.83815033 -87.04428101 161.18339539 C-84.32116998 162.76949398 -81.60011117 164.35905608 -78.88037109 165.95092773 C-75.93446188 167.66079949 -72.97365219 169.33889032 -70 171 C-68.95457031 171.59264648 -67.90914063 172.18529297 -66.83203125 172.79589844 C-60.88172712 176.03022559 -60.88172712 176.03022559 -54.30859375 177.16796875 C-49.94368258 175.62710873 -46.0678958 173.61962407 -42.0625 171.3125 C-41.20205078 170.82773193 -40.34160156 170.34296387 -39.45507812 169.84350586 C-36.62821458 168.24341825 -33.81304804 166.62424266 -31 165 C-30.02659668 164.43990234 -29.05319336 163.87980469 -28.05029297 163.30273438 C-22.00329517 159.81685283 -15.97856874 156.29463806 -9.96728516 152.74755859 C-7.02879857 151.01696068 -4.08313738 149.2990804 -1.13671875 147.58203125 C0.68008139 146.51369039 2.49650621 145.44471094 4.3125 144.375 C5.14845703 143.89039307 5.98441406 143.40578613 6.84570312 142.90649414 C7.61462891 142.45008545 8.38355469 141.99367676 9.17578125 141.5234375 C9.84520752 141.13075684 10.51463379 140.73807617 11.2043457 140.33349609 C13.99898161 138.25813221 15.62854769 136.19340091 16.66772461 132.85473633 C17.15356452 128.68065399 17.23780763 124.52347827 17.31640625 120.32421875 C17.3475779 118.93648003 17.3475779 118.93648003 17.37937927 117.52070618 C17.4445656 114.57637693 17.50361558 111.63196135 17.5625 108.6875 C17.60571464 106.68684017 17.64932986 104.68618894 17.69335938 102.68554688 C17.8009662 97.79045164 17.90026939 92.89528736 18 88 C25.92 88 33.84 88 42 88 C41.92597931 81.53978075 41.84312783 75.08094061 41.73754883 68.62133789 C41.70431945 66.42447073 41.67628134 64.2275186 41.65356445 62.03051758 C41.61998246 58.87023757 41.56766366 55.71073479 41.51171875 52.55078125 C41.50213387 51.08020012 41.50213387 51.08020012 41.49235535 49.57991028 C41.39166593 42.75994741 41.39166593 42.75994741 38 37 C35.5329986 35.13259234 35.5329986 35.13259234 32.6171875 33.58203125 C31.53945068 32.97190186 30.46171387 32.36177246 29.35131836 31.7331543 C27.63054077 30.78243042 27.63054077 30.78243042 25.875 29.8125 C24.69786011 29.14959243 23.521512 28.48527696 22.34594727 27.81958008 C20.00158234 26.49332341 17.65433999 25.17243912 15.30419922 23.85644531 C10.82509166 21.33988451 6.37440553 18.77757424 1.9375 16.1875 C1.2367334 15.78571533 0.5359668 15.38393066 -0.18603516 14.9699707 C-4.88471193 12.23057613 -4.88471193 12.23057613 -6 10 C-4.78515625 7.6171875 -4.78515625 7.6171875 -3.0625 4.875 C-2.49660156 3.96492188 -1.93070313 3.05484375 -1.34765625 2.1171875 C-0.90292969 1.41851562 -0.45820313 0.71984375 0 0 Z " fill="#00D1F0" transform="translate(184,33)"/>
<path d="M0 0 C1.13308594 -0.04898437 2.26617187 -0.09796875 3.43359375 -0.1484375 C14.06730981 0.53982455 24.22156923 7.80809981 33.125 13.0625 C34.29714244 13.74610088 35.46966722 14.42904662 36.64257812 15.11132812 C44.90026713 19.93351142 44.90026713 19.93351142 48.5625 22.375 C46.8628494 27.10974097 44.42590973 31.33667111 41.9375 35.6875 C41.51726562 36.42806641 41.09703125 37.16863281 40.6640625 37.93164062 C39.63301505 39.74769011 38.59813954 41.56156533 37.5625 43.375 C47.24169516 49.5077694 57.15620368 55.21898572 67.09521484 60.91821289 C85.89194493 71.70444493 85.89194493 71.70444493 87.5625 73.375 C87.65097743 75.89594076 87.67777301 78.38930893 87.66015625 80.91015625 C87.65803383 82.04003212 87.65803383 82.04003212 87.65586853 83.19273376 C87.65025376 85.6076956 87.63769883 88.02256601 87.625 90.4375 C87.6199869 92.07096221 87.61542366 93.70442586 87.61132812 95.33789062 C87.60027954 99.35029585 87.58300506 103.36263241 87.5625 107.375 C83.2725 107.375 78.9825 107.375 74.5625 107.375 C74.76875 105.66054687 74.975 103.94609375 75.1875 102.1796875 C76.29927968 89.89969887 76.29927968 89.89969887 71.61083984 79.02734375 C66.05376624 74.68433774 59.62952344 71.92351499 53.21484375 69.07910156 C47.28672441 66.39116914 41.72933637 63.00316325 36.12002563 59.71563721 C33.14000276 57.9776269 30.13704841 56.28082436 27.13671875 54.578125 C24.20613491 52.91317545 21.36770433 51.24513622 18.5625 49.375 C20.2621506 44.64025903 22.69909027 40.41332889 25.1875 36.0625 C25.60773438 35.32193359 26.02796875 34.58136719 26.4609375 33.81835938 C27.49198495 32.00230989 28.52686046 30.18843467 29.5625 28.375 C24.11227102 24.45470374 18.44963053 21.09668851 12.5 18 C11.51 17.46342773 11.51 17.46342773 10.5 16.91601562 C5.58647527 14.42033425 2.07486208 13.78497512 -3.4375 14.375 C-5.98232895 15.30617605 -8.08733528 16.22399032 -10.4375 17.5 C-11.10990723 17.85054443 -11.78231445 18.20108887 -12.47509766 18.56225586 C-21.88618184 23.55120111 -31.02156348 29.05462351 -40.19189453 34.46777344 C-45.69182519 37.69971705 -51.22191939 40.87903761 -56.75 44.0625 C-57.83297363 44.68906494 -58.91594727 45.31562988 -60.03173828 45.96118164 C-65.03098999 48.85171731 -70.0389669 51.72004542 -75.08984375 54.51953125 C-75.95633545 55.00526611 -76.82282715 55.49100098 -77.71557617 55.99145508 C-79.29665222 56.8763892 -80.88358956 57.75098186 -82.4777832 58.61206055 C-89.08176037 62.33119418 -94.11959324 66.98904979 -96.4375 74.375 C-96.66397164 76.86462735 -96.79182084 79.36408844 -96.8515625 81.86328125 C-96.87092865 82.56647995 -96.8902948 83.26967865 -96.9102478 83.9941864 C-96.96970183 86.22517019 -97.01629049 88.45620654 -97.0625 90.6875 C-97.10071137 92.20640186 -97.13976492 93.72528278 -97.1796875 95.24414062 C-97.27537416 98.95423467 -97.35953072 102.66448651 -97.4375 106.375 C-101.7275 106.375 -106.0175 106.375 -110.4375 106.375 C-110.53747246 101.73435528 -110.60947966 97.09435728 -110.65722656 92.45288086 C-110.67716084 90.87887635 -110.70431871 89.30494411 -110.73925781 87.73120117 C-110.98790022 76.23148962 -110.48975189 65.42493299 -103.00390625 55.97265625 C-96.83502654 49.68070662 -88.6558915 45.73508172 -81.0012207 41.54833984 C-74.58201927 38.03539568 -68.25062486 34.38733755 -61.9375 30.6875 C-59.89845122 29.49476821 -57.85938846 28.30206032 -55.8203125 27.109375 C-54.78165039 26.50158203 -53.74298828 25.89378906 -52.67285156 25.26757812 C-9.97219818 0.28904922 -9.97219818 0.28904922 0 0 Z " fill="#00E0E5" transform="translate(127.4375,4.625)"/>
<path d="M0 0 C2.91111401 0.72515114 4.71650806 2.15498609 6.4296875 4.61328125 C7.82076034 8.26114778 7.09723734 11.83598776 6.1640625 15.5390625 C5.8340625 16.1990625 5.5040625 16.8590625 5.1640625 17.5390625 C5.21607509 19.13858554 5.34086582 20.7360832 5.50390625 22.328125 C5.59736328 23.26914063 5.69082031 24.21015625 5.78710938 25.1796875 C5.89087891 26.16453125 5.99464844 27.149375 6.1015625 28.1640625 C6.20146484 29.15664062 6.30136719 30.14921875 6.40429688 31.171875 C6.65228533 33.62814161 6.90749803 36.08367687 7.1640625 38.5390625 C0.8940625 38.5390625 -5.3759375 38.5390625 -11.8359375 38.5390625 C-11.58457031 36.20908203 -11.58457031 36.20908203 -11.328125 33.83203125 C-11.12180189 31.79693513 -10.9161052 29.76177543 -10.7109375 27.7265625 C-10.59878906 26.70240234 -10.48664063 25.67824219 -10.37109375 24.62304688 C-10.27441406 23.64013672 -10.17773438 22.65722656 -10.078125 21.64453125 C-9.9838623 20.73856201 -9.88959961 19.83259277 -9.79248047 18.89916992 C-9.62877156 16.26558262 -9.62877156 16.26558262 -11.8359375 13.5390625 C-12.3809193 8.71208081 -12.54898679 6.64313881 -9.8984375 2.5390625 C-6.34289029 0.21707248 -4.18564006 -0.26597713 0 0 Z " fill="#00D7EC" transform="translate(129.8359375,106.4609375)"/>
</svg>
